<svg xmlns="http://www.w3.org/2000/svg" width="760" height="570" viewBox="0 0 760 570">
<rect width="760" height="570" fill="white"/>
<style>text { font-family: "Comic Neue", "Trebuchet MS", sans-serif; }</style>
<text x="20" y="24" font-size="15" fill="#333">probes=1 only searches the nearest cluster, even when a true neighbor sits just across the boundary</text>
<circle cx="220" cy="175" r="75" fill="#cde498" fill-opacity="0.35" stroke="#13540c" stroke-width="1.5" />
<circle cx="490" cy="150" r="75" fill="#eee" fill-opacity="0.35" stroke="#999" stroke-width="1.5" stroke-dasharray="5 4"/>
<circle cx="630" cy="300" r="75" fill="#eee" fill-opacity="0.35" stroke="#999" stroke-width="1.5" stroke-dasharray="5 4"/>
<circle cx="370" cy="355" r="75" fill="#eee" fill-opacity="0.35" stroke="#999" stroke-width="1.5" stroke-dasharray="5 4"/>
<circle cx="170" cy="330" r="75" fill="#eee" fill-opacity="0.35" stroke="#999" stroke-width="1.5" stroke-dasharray="5 4"/>
<circle cx="219.0" cy="173.8" r="4" fill="#3a8a3a"/>
<circle cx="217.8" cy="189.1" r="4" fill="#3a8a3a"/>
<circle cx="216.3" cy="132.0" r="4" fill="#3a8a3a"/>
<circle cx="224.3" cy="171.5" r="4" fill="#3a8a3a"/>
<circle cx="218.3" cy="175.9" r="4" fill="#3a8a3a"/>
<circle cx="226.3" cy="206.6" r="4" fill="#3a8a3a"/>
<circle cx="232.5" cy="177.1" r="4" fill="#3a8a3a"/>
<circle cx="199.6" cy="146.9" r="4" fill="#3a8a3a"/>
<circle cx="226.9" cy="211.9" r="4" fill="#3a8a3a"/>
<circle cx="490.2" cy="149.6" r="4" fill="#888"/>
<circle cx="505.3" cy="108.2" r="4" fill="#888"/>
<circle cx="484.7" cy="158.4" r="4" fill="#888"/>
<circle cx="510.7" cy="144.3" r="4" fill="#888"/>
<circle cx="495.1" cy="153.4" r="4" fill="#888"/>
<circle cx="512.1" cy="118.5" r="4" fill="#888"/>
<circle cx="506.3" cy="106.4" r="4" fill="#888"/>
<circle cx="429.6" cy="136.0" r="4" fill="#888"/>
<circle cx="464.6" cy="174.3" r="4" fill="#888"/>
<circle cx="648.9" cy="265.4" r="4" fill="#888"/>
<circle cx="653.8" cy="271.9" r="4" fill="#888"/>
<circle cx="629.2" cy="297.2" r="4" fill="#888"/>
<circle cx="632.6" cy="318.3" r="4" fill="#888"/>
<circle cx="643.0" cy="307.1" r="4" fill="#888"/>
<circle cx="644.3" cy="310.5" r="4" fill="#888"/>
<circle cx="614.7" cy="282.5" r="4" fill="#888"/>
<circle cx="620.8" cy="309.7" r="4" fill="#888"/>
<circle cx="623.6" cy="359.4" r="4" fill="#888"/>
<circle cx="346.8" cy="323.9" r="4" fill="#888"/>
<circle cx="392.1" cy="395.9" r="4" fill="#888"/>
<circle cx="382.5" cy="375.7" r="4" fill="#888"/>
<circle cx="410.7" cy="352.3" r="4" fill="#888"/>
<circle cx="329.1" cy="339.7" r="4" fill="#888"/>
<circle cx="397.3" cy="313.7" r="4" fill="#888"/>
<circle cx="370.3" cy="357.0" r="4" fill="#888"/>
<circle cx="363.2" cy="370.6" r="4" fill="#888"/>
<circle cx="384.6" cy="413.3" r="4" fill="#888"/>
<circle cx="184.3" cy="315.9" r="4" fill="#888"/>
<circle cx="155.9" cy="309.1" r="4" fill="#888"/>
<circle cx="195.1" cy="315.0" r="4" fill="#888"/>
<circle cx="168.5" cy="345.7" r="4" fill="#888"/>
<circle cx="154.5" cy="323.7" r="4" fill="#888"/>
<circle cx="120.7" cy="301.0" r="4" fill="#888"/>
<circle cx="158.7" cy="338.3" r="4" fill="#888"/>
<circle cx="202.5" cy="329.5" r="4" fill="#888"/>
<circle cx="172.5" cy="331.6" r="4" fill="#888"/>
<circle cx="195" cy="305" r="6" fill="#1a4a7a" stroke="white" stroke-width="1.5"/>
<text x="209" y="309" font-size="13" fill="#1a4a7a">true nearest neighbor (missed)</text>
<circle cx="215" cy="265" r="7" fill="#a04000" stroke="white" stroke-width="2"/>
<text x="120" y="251" font-size="13" fill="#a04000">query vector</text>
<text x="220" y="70" font-size="12" fill="#13540c" font-weight="bold" text-anchor="middle">cluster A</text>
<text x="220" y="85" font-size="12" fill="#13540c" font-weight="bold" text-anchor="middle">(nearest centroid —</text>
<text x="220" y="100" font-size="12" fill="#13540c" font-weight="bold" text-anchor="middle">probes=1 searches only this one)</text>
<text x="490" y="60" font-size="12" fill="#666" font-weight="normal" text-anchor="middle">cluster B</text>
<text x="695" y="225" font-size="12" fill="#666" font-weight="normal" text-anchor="middle">cluster C</text>
<text x="370" y="448" font-size="12" fill="#666" font-weight="normal" text-anchor="middle">cluster D</text>
<text x="170" y="423" font-size="12" fill="#1a4a7a" font-weight="bold" text-anchor="middle">cluster E</text>
<text x="170" y="438" font-size="12" fill="#1a4a7a" font-weight="bold" text-anchor="middle">(adjacent — never searched)</text>
<rect x="20" y="510" width="720" height="44" fill="#f5f5f5" stroke="#999"/>
<text x="32" y="530" font-size="13" fill="#333">IVFFlat clusters vectors at index-build time. probes=1 checks only the nearest centroid (A) —</text>
<text x="32" y="548" font-size="13" fill="#333">a real neighbor one cluster over is invisible to the search.</text>
</svg>