<?xml version="1.0" encoding="utf-8"?>
<svg xmlns="http://www.w3.org/2000/svg" width="920" height="860" viewBox="0 0 920 860">
  <defs>
    <filter id="organic" x="0" y="0" width="920" height="860" filterUnits="userSpaceOnUse" color-interpolation-filters="linearRGB">
      <feTurbulence type="fractalNoise" baseFrequency="0.018" numOctaves="3" seed="17" result="noise" />
      <feDisplacementMap in="SourceGraphic" in2="noise" scale="13" xChannelSelector="R" yChannelSelector="G" />
    </filter>
    <filter id="lbl-shadow" x="-10%" y="-20%" width="120%" height="140%">
      <feFlood flood-color="white" flood-opacity="0.72" result="bg" />
      <feComposite in="bg" in2="SourceGraphic" operator="over" />
    </filter>
    <linearGradient id="sea-grad" x1="0" y1="0" x2="0" y2="672.3440860215336" gradientUnits="userSpaceOnUse">
      <stop offset="0%" stop-color="#6aade0" stop-opacity="0.5" />
      <stop offset="100%" stop-color="#a8d4f0" stop-opacity="0" />
    </linearGradient>
  </defs>
  <rect x="0" y="0" width="920" height="860" fill="#a8d4f0" />
  <rect x="0" y="0" width="920" height="672.3440860215336" fill="url(#sea-grad)" />
  <rect x="48" y="48" width="824" height="764.0" fill="#e8e4dc" />
  <g id="neighborhoods" filter="url(#organic)">
    <polygon points="312.86,672.34 656.19,672.34 656.19,508.04 312.86,508.04 312.86,672.34" fill="#c2ddf0" stroke="#7a9ab0" stroke-width="1.4" stroke-linejoin="round" />
    <polygon points="312.86,508.04 626.76,508.04 626.76,327.31 312.86,327.31 312.86,508.04" fill="#f5e4c5" stroke="#7a9ab0" stroke-width="1.4" stroke-linejoin="round" />
    <polygon points="67.62,327.31 852.38,327.31 852.38,97.29 67.62,97.29 67.62,327.31" fill="#d6ecda" stroke="#7a9ab0" stroke-width="1.4" stroke-linejoin="round" />
    <polygon points="626.76,508.04 852.38,508.04 852.38,327.31 626.76,327.31 626.76,508.04" fill="#cae3f5" stroke="#7a9ab0" stroke-width="1.4" stroke-linejoin="round" />
    <polygon points="67.62,508.04 312.86,508.04 312.86,327.31 67.62,327.31 67.62,508.04" fill="#e6d6f0" stroke="#7a9ab0" stroke-width="1.4" stroke-linejoin="round" />
    <polygon points="656.19,672.34 852.38,672.34 852.38,508.04 656.19,508.04 656.19,672.34" fill="#d4cfc5" stroke="#7a9ab0" stroke-width="1.4" stroke-linejoin="round" />
  </g>
  <g id="parks">
    <polygon points="518.86,540.90 558.10,540.90 558.10,516.26 518.86,516.26 518.86,540.90" fill="#7ec87e" stroke="#3a8a3a" stroke-width="0.9" opacity="0.88" />
    <polygon points="401.14,434.11 450.19,434.11 450.19,409.46 401.14,409.46 401.14,434.11" fill="#7ec87e" stroke="#3a8a3a" stroke-width="0.9" opacity="0.88" />
    <polygon points="715.05,409.46 773.90,409.46 773.90,360.17 715.05,360.17 715.05,409.46" fill="#7ec87e" stroke="#3a8a3a" stroke-width="0.9" opacity="0.88" />
    <polygon points="165.71,409.46 244.19,409.46 244.19,351.96 165.71,351.96 165.71,409.46" fill="#7ec87e" stroke="#3a8a3a" stroke-width="0.9" opacity="0.88" />
    <polygon points="430.57,220.52 558.10,220.52 558.10,154.80 430.57,154.80 430.57,220.52" fill="#7ec87e" stroke="#3a8a3a" stroke-width="0.9" opacity="0.88" />
    <polygon points="675.81,565.55 754.29,565.55 754.29,532.69 675.81,532.69 675.81,565.55" fill="#7ec87e" stroke="#3a8a3a" stroke-width="0.9" opacity="0.88" />
  </g>
  <g id="roads">
    <path d="M 67.62 508.04 L 67.62 97.29 L 852.38 97.29 L 852.38 672.34 L 312.86 672.34 L 312.86 508.04 L 67.62 508.04" fill="none" stroke="#888888" stroke-width="3.5" stroke-linecap="round" stroke-linejoin="round" />
    <path d="M 312.86 573.76 L 656.19 573.76" fill="none" stroke="#aaaaaa" stroke-width="2.0" stroke-linecap="round" stroke-linejoin="round" />
    <path d="M 430.57 508.04 L 430.57 327.31" fill="none" stroke="#aaaaaa" stroke-width="2.0" stroke-linecap="round" stroke-linejoin="round" />
    <path d="M 67.62 425.89 L 626.76 425.89" fill="none" stroke="#aaaaaa" stroke-width="2.0" stroke-linecap="round" stroke-linejoin="round" />
    <path d="M 67.62 278.02 L 852.38 278.02" fill="none" stroke="#aaaaaa" stroke-width="2.0" stroke-linecap="round" stroke-linejoin="round" />
    <path d="M 734.67 508.04 L 734.67 179.44" fill="none" stroke="#aaaaaa" stroke-width="2.0" stroke-linecap="round" stroke-linejoin="round" />
    <path d="M 312.86 540.90 L 656.19 540.90" fill="none" stroke="#bbbbbb" stroke-width="1.4" stroke-linecap="round" stroke-linejoin="round" />
    <path d="M 656.19 606.62 L 852.38 606.62" fill="none" stroke="#bbbbbb" stroke-width="1.4" stroke-linecap="round" stroke-linejoin="round" />
    <path d="M 656.19 417.68 L 852.38 417.68" fill="none" stroke="#bbbbbb" stroke-width="1.4" stroke-linecap="round" stroke-linejoin="round" />
    <path d="M 626.76 491.61 L 813.14 409.46" fill="none" stroke="#bbbbbb" stroke-width="1.4" stroke-linecap="round" stroke-linejoin="round" />
    <path d="M 528.67 590.19 L 528.67 524.47" fill="none" stroke="#cccccc" stroke-width="0.9" stroke-linecap="round" stroke-linejoin="round" stroke-dasharray="4,3" />
    <path d="M 332.48 442.32 L 509.05 442.32" fill="none" stroke="#cccccc" stroke-width="0.9" stroke-linecap="round" stroke-linejoin="round" stroke-dasharray="4,3" />
  </g>
  <g id="businesses">
    <circle cx="499.24" cy="590.19" r="3.8" fill="#c0392b" fill-opacity="0.85" stroke="white" stroke-width="1.0" />
    <circle cx="528.67" cy="581.98" r="2.8" fill="#d35400" fill-opacity="0.85" stroke="white" stroke-width="0.7" />
    <circle cx="460.00" cy="614.84" r="2.8" fill="#d35400" fill-opacity="0.85" stroke="white" stroke-width="0.7" />
    <circle cx="548.29" cy="565.55" r="2.8" fill="#d35400" fill-opacity="0.85" stroke="white" stroke-width="0.7" />
    <circle cx="695.43" cy="598.41" r="2.8" fill="#d35400" fill-opacity="0.85" stroke="white" stroke-width="0.7" />
    <circle cx="577.71" cy="557.33" r="2.8" fill="#d35400" fill-opacity="0.85" stroke="white" stroke-width="0.7" />
    <circle cx="538.48" cy="573.76" r="2.8" fill="#d35400" fill-opacity="0.85" stroke="white" stroke-width="0.7" />
    <circle cx="567.90" cy="549.12" r="2.8" fill="#d35400" fill-opacity="0.85" stroke="white" stroke-width="0.7" />
    <circle cx="587.52" cy="540.90" r="2.8" fill="#d35400" fill-opacity="0.85" stroke="white" stroke-width="0.7" />
    <circle cx="607.14" cy="532.69" r="3.8" fill="#c0392b" fill-opacity="0.85" stroke="white" stroke-width="1.0" />
    <circle cx="420.76" cy="442.32" r="2.8" fill="#d35400" fill-opacity="0.85" stroke="white" stroke-width="0.7" />
    <circle cx="401.14" cy="450.54" r="2.8" fill="#d35400" fill-opacity="0.85" stroke="white" stroke-width="0.7" />
    <circle cx="361.90" cy="425.89" r="3.8" fill="#c0392b" fill-opacity="0.85" stroke="white" stroke-width="1.0" />
    <circle cx="479.62" cy="466.97" r="2.8" fill="#d35400" fill-opacity="0.85" stroke="white" stroke-width="0.7" />
    <circle cx="430.57" cy="450.54" r="3.8" fill="#c0392b" fill-opacity="0.85" stroke="white" stroke-width="1.0" />
    <circle cx="489.43" cy="425.89" r="2.8" fill="#d35400" fill-opacity="0.85" stroke="white" stroke-width="0.7" />
    <circle cx="499.24" cy="434.11" r="2.8" fill="#d35400" fill-opacity="0.85" stroke="white" stroke-width="0.7" />
    <circle cx="469.81" cy="425.89" r="2.8" fill="#d35400" fill-opacity="0.85" stroke="white" stroke-width="0.7" />
    <circle cx="381.52" cy="425.89" r="2.8" fill="#d35400" fill-opacity="0.85" stroke="white" stroke-width="0.7" />
    <circle cx="567.90" cy="278.02" r="2.8" fill="#d35400" fill-opacity="0.85" stroke="white" stroke-width="0.7" />
    <circle cx="440.38" cy="245.16" r="3.8" fill="#c0392b" fill-opacity="0.85" stroke="white" stroke-width="1.0" />
    <circle cx="322.67" cy="261.59" r="2.8" fill="#d35400" fill-opacity="0.85" stroke="white" stroke-width="0.7" />
    <circle cx="646.38" cy="286.24" r="3.8" fill="#c0392b" fill-opacity="0.85" stroke="white" stroke-width="1.0" />
    <circle cx="489.43" cy="253.38" r="2.8" fill="#d35400" fill-opacity="0.85" stroke="white" stroke-width="0.7" />
    <circle cx="577.71" cy="278.02" r="2.8" fill="#d35400" fill-opacity="0.85" stroke="white" stroke-width="0.7" />
    <circle cx="558.10" cy="278.02" r="2.8" fill="#d35400" fill-opacity="0.85" stroke="white" stroke-width="0.7" />
    <circle cx="538.48" cy="286.24" r="2.8" fill="#d35400" fill-opacity="0.85" stroke="white" stroke-width="0.7" />
    <circle cx="616.95" cy="269.81" r="2.8" fill="#d35400" fill-opacity="0.85" stroke="white" stroke-width="0.7" />
    <circle cx="734.67" cy="442.32" r="2.8" fill="#d35400" fill-opacity="0.85" stroke="white" stroke-width="0.7" />
    <circle cx="744.48" cy="434.11" r="2.8" fill="#d35400" fill-opacity="0.85" stroke="white" stroke-width="0.7" />
    <circle cx="715.05" cy="458.75" r="2.8" fill="#d35400" fill-opacity="0.85" stroke="white" stroke-width="0.7" />
    <circle cx="705.24" cy="425.89" r="2.8" fill="#d35400" fill-opacity="0.85" stroke="white" stroke-width="0.7" />
    <circle cx="754.29" cy="409.46" r="2.8" fill="#d35400" fill-opacity="0.85" stroke="white" stroke-width="0.7" />
    <circle cx="695.43" cy="466.97" r="3.8" fill="#c0392b" fill-opacity="0.85" stroke="white" stroke-width="1.0" />
    <circle cx="764.10" cy="401.25" r="3.8" fill="#c0392b" fill-opacity="0.85" stroke="white" stroke-width="1.0" />
    <circle cx="744.48" cy="393.03" r="2.8" fill="#d35400" fill-opacity="0.85" stroke="white" stroke-width="0.7" />
    <circle cx="724.86" cy="417.68" r="2.8" fill="#d35400" fill-opacity="0.85" stroke="white" stroke-width="0.7" />
    <circle cx="234.38" cy="450.54" r="3.8" fill="#c0392b" fill-opacity="0.85" stroke="white" stroke-width="1.0" />
    <circle cx="254.00" cy="425.89" r="3.8" fill="#c0392b" fill-opacity="0.85" stroke="white" stroke-width="1.0" />
    <circle cx="185.33" cy="393.03" r="2.8" fill="#d35400" fill-opacity="0.85" stroke="white" stroke-width="0.7" />
    <circle cx="244.19" cy="417.68" r="2.8" fill="#d35400" fill-opacity="0.85" stroke="white" stroke-width="0.7" />
    <circle cx="224.57" cy="450.54" r="2.8" fill="#d35400" fill-opacity="0.85" stroke="white" stroke-width="0.7" />
    <circle cx="724.86" cy="614.84" r="2.8" fill="#d35400" fill-opacity="0.85" stroke="white" stroke-width="0.7" />
    <circle cx="744.48" cy="623.05" r="2.8" fill="#d35400" fill-opacity="0.85" stroke="white" stroke-width="0.7" />
    <circle cx="783.71" cy="573.76" r="3.8" fill="#c0392b" fill-opacity="0.85" stroke="white" stroke-width="1.0" />
    <circle cx="734.67" cy="614.84" r="2.8" fill="#d35400" fill-opacity="0.85" stroke="white" stroke-width="0.7" />
    <circle cx="793.52" cy="565.55" r="2.8" fill="#d35400" fill-opacity="0.85" stroke="white" stroke-width="0.7" />
    <circle cx="754.29" cy="606.62" r="3.8" fill="#c0392b" fill-opacity="0.85" stroke="white" stroke-width="1.0" />
  </g>
  <g id="business-labels" font-family="Arial, Helvetica, sans-serif" font-size="7.5">
    <text x="506.2" y="593.2" text-anchor="start" fill="#1a1a2e" stroke="white" stroke-width="2.8" paint-order="stroke fill" font-weight="600">The Gilded Clam</text>
    <text x="600.1" y="535.7" text-anchor="end" fill="#1a1a2e" stroke="white" stroke-width="2.8" paint-order="stroke fill" font-weight="600">Harbour View Theatre</text>
    <text x="354.9" y="428.9" text-anchor="end" fill="#1a1a2e" stroke="white" stroke-width="2.8" paint-order="stroke fill" font-weight="600">Old Town Hardware</text>
    <text x="437.6" y="453.5" text-anchor="start" fill="#1a1a2e" stroke="white" stroke-width="2.8" paint-order="stroke fill" font-weight="600">Clocktower Pub</text>
    <text x="433.4" y="248.2" text-anchor="end" fill="#1a1a2e" stroke="white" stroke-width="2.8" paint-order="stroke fill" font-weight="600">Northgate Grocers</text>
    <text x="653.4" y="289.2" text-anchor="start" fill="#1a1a2e" stroke="white" stroke-width="2.8" paint-order="stroke fill" font-weight="600">Grand Hotel</text>
    <text x="688.4" y="470.0" text-anchor="end" fill="#1a1a2e" stroke="white" stroke-width="2.8" paint-order="stroke fill" font-weight="600">Dr. Chen Dentistry</text>
    <text x="757.1" y="398.2" text-anchor="end" fill="#1a1a2e" stroke="white" stroke-width="2.8" paint-order="stroke fill" font-weight="600">Riverside Cinema</text>
    <text x="241.4" y="453.5" text-anchor="start" fill="#1a1a2e" stroke="white" stroke-width="2.8" paint-order="stroke fill" font-weight="600">Hungry Scholar</text>
    <text x="261.0" y="428.9" text-anchor="start" fill="#1a1a2e" stroke="white" stroke-width="2.8" paint-order="stroke fill" font-weight="600">Quarter Note Jazz</text>
    <text x="790.7" y="576.8" text-anchor="start" fill="#1a1a2e" stroke="white" stroke-width="2.8" paint-order="stroke fill" font-weight="600">Ironside Auto</text>
    <text x="761.3" y="609.6" text-anchor="start" fill="#1a1a2e" stroke="white" stroke-width="2.8" paint-order="stroke fill" font-weight="600">Old Brewery Tap</text>
  </g>
  <g id="nb-labels" font-family="Georgia, serif">
    <text x="484.5" y="590.2" text-anchor="middle" font-size="9.5" font-weight="700" fill="#1a4a6b" filter="url(#lbl-shadow)" letter-spacing="0.5">
      <tspan x="484.5" dy="0.0">HARBOUR DISTRICT</tspan>
    </text>
    <text x="469.8" y="417.7" text-anchor="middle" font-size="9.5" font-weight="700" fill="#5a3e00" filter="url(#lbl-shadow)" letter-spacing="0.5">
      <tspan x="469.8" dy="0.0">OLD TOWN</tspan>
    </text>
    <text x="460.0" y="212.3" text-anchor="middle" font-size="9.5" font-weight="700" fill="#1e5c1e" filter="url(#lbl-shadow)" letter-spacing="0.5">
      <tspan x="460.0" dy="0.0">NORTHGATE</tspan>
    </text>
    <text x="739.6" y="417.7" text-anchor="middle" font-size="9.5" font-weight="700" fill="#1a4a6b" filter="url(#lbl-shadow)" letter-spacing="0.5">
      <tspan x="739.6" dy="0.0">RIVERSIDE</tspan>
    </text>
    <text x="190.2" y="417.7" text-anchor="middle" font-size="9.5" font-weight="700" fill="#4a1a6b" filter="url(#lbl-shadow)" letter-spacing="0.5">
      <tspan x="190.2" dy="0.0">UNIVERSITY QUARTER</tspan>
    </text>
    <text x="754.3" y="590.2" text-anchor="middle" font-size="9.5" font-weight="700" fill="#4a3f30" filter="url(#lbl-shadow)" letter-spacing="0.5">
      <tspan x="754.3" dy="0.0">INDUSTRIAL PORT</tspan>
    </text>
    <text x="534.6" y="531.0" text-anchor="middle" font-size="6" fill="#1e6b1e" font-style="italic">Harbourside Park</text>
    <text x="420.8" y="424.2" text-anchor="middle" font-size="6" fill="#1e6b1e" font-style="italic">Market Square Gardens</text>
    <text x="738.6" y="389.7" text-anchor="middle" font-size="6" fill="#1e6b1e" font-style="italic">Riverside Walk Park</text>
    <text x="197.1" y="386.5" text-anchor="middle" font-size="6" fill="#1e6b1e" font-style="italic">University Grounds</text>
    <text x="481.6" y="194.2" text-anchor="middle" font-size="6" fill="#1e6b1e" font-style="italic">Northgate Recreation Ground</text>
    <text x="707.2" y="552.4" text-anchor="middle" font-size="6" fill="#1e6b1e" font-style="italic">Dockside Green</text>
    <text x="460" y="762" text-anchor="middle" font-size="13" font-style="italic" fill="#1a4a7a" opacity="0.82" letter-spacing="2">Portsmith Harbour</text>
  </g>
  <text x="460" y="28" text-anchor="middle" font-family="Georgia, serif" font-size="16" font-weight="bold" fill="#222233" letter-spacing="1">PORTSMITH</text>
  <text x="460" y="42" text-anchor="middle" font-family="Georgia, serif" font-size="8.5" fill="#555566" letter-spacing="2">neighbourhood map  ·  PostGIS chapter 2</text>
  <rect x="1" y="1" width="918" height="858" fill="none" stroke="#445566" stroke-width="2" rx="4" />
  <rect x="720" y="48" width="154" height="148" fill="white" fill-opacity="0.84" stroke="#aaa" stroke-width="0.8" rx="3" />
  <text x="797" y="61" text-anchor="middle" font-family="Georgia, serif" font-size="8" font-weight="bold" fill="#333">NEIGHBOURHOODS</text>
  <rect x="728" y="74" width="12" height="10" fill="#c2ddf0" stroke="#7a9ab0" stroke-width="0.8" />
  <text x="745" y="82" font-family="Georgia, serif" font-size="8" fill="#333">Harbour District</text>
  <rect x="728" y="90" width="12" height="10" fill="#d4cfc5" stroke="#7a9ab0" stroke-width="0.8" />
  <text x="745" y="98" font-family="Georgia, serif" font-size="8" fill="#333">Industrial Port</text>
  <rect x="728" y="106" width="12" height="10" fill="#f5e4c5" stroke="#7a9ab0" stroke-width="0.8" />
  <text x="745" y="114" font-family="Georgia, serif" font-size="8" fill="#333">Old Town</text>
  <rect x="728" y="122" width="12" height="10" fill="#d6ecda" stroke="#7a9ab0" stroke-width="0.8" />
  <text x="745" y="130" font-family="Georgia, serif" font-size="8" fill="#333">Northgate</text>
  <rect x="728" y="138" width="12" height="10" fill="#cae3f5" stroke="#7a9ab0" stroke-width="0.8" />
  <text x="745" y="146" font-family="Georgia, serif" font-size="8" fill="#333">Riverside</text>
  <rect x="728" y="154" width="12" height="10" fill="#e6d6f0" stroke="#7a9ab0" stroke-width="0.8" />
  <text x="745" y="162" font-family="Georgia, serif" font-size="8" fill="#333">University Quarter</text>
  <circle cx="734" cy="182" r="4" fill="#c0392b" fill-opacity="0.85" stroke="white" stroke-width="0.8" />
  <text x="745" y="186" font-family="Georgia, serif" font-size="8" fill="#333">Business (labelled = featured)</text>
</svg>